<?xml version="1.0" encoding="UTF-8" standalone="no"?>
<!-- Created with Inkscape (http://www.inkscape.org/) -->

<svg
   xmlns:dc="http://purl.org/dc/elements/1.1/"
   xmlns:cc="http://creativecommons.org/ns#"
   xmlns:rdf="http://www.w3.org/1999/02/22-rdf-syntax-ns#"
   xmlns:svg="http://www.w3.org/2000/svg"
   xmlns="http://www.w3.org/2000/svg"
   xmlns:sodipodi="http://sodipodi.sourceforge.net/DTD/sodipodi-0.dtd"
   xmlns:inkscape="http://www.inkscape.org/namespaces/inkscape"
   width="3.9693515cm"
   height="2.1593568cm"
   viewBox="0 0 39.693515 21.593568"
   version="1.1"
   id="svg8"
   sodipodi:docname="Zero Graffiti Version.svg"
   inkscape:version="0.92.4 (5da689c313, 2019-01-14)">
  <defs
     id="defs2" />
  <sodipodi:namedview
     id="base"
     pagecolor="#ffffff"
     bordercolor="#666666"
     borderopacity="1.0"
     inkscape:pageopacity="0.0"
     inkscape:pageshadow="2"
     inkscape:zoom="2.8"
     inkscape:cx="41.977735"
     inkscape:cy="91.169358"
     inkscape:document-units="mm"
     inkscape:current-layer="layer1"
     showgrid="false"
     units="cm"
     inkscape:window-width="1920"
     inkscape:window-height="1018"
     inkscape:window-x="-8"
     inkscape:window-y="-8"
     inkscape:window-maximized="1"
     fit-margin-top="0"
     fit-margin-left="0"
     fit-margin-right="0"
     fit-margin-bottom="0" />
  <metadata
     id="metadata5">
    <rdf:RDF>
      <cc:Work
         rdf:about="">
        <dc:format>image/svg+xml</dc:format>
        <dc:type
           rdf:resource="http://purl.org/dc/dcmitype/StillImage" />
        <dc:title></dc:title>
      </cc:Work>
    </rdf:RDF>
  </metadata>
  <g
     inkscape:label="Ebene 1"
     inkscape:groupmode="layer"
     id="layer1"
     transform="translate(-12.070184,-281.5627)">
    <path
       style="fill:none;stroke:#000000;stroke-width:0.05;stroke-linecap:butt;stroke-linejoin:miter;stroke-miterlimit:4;stroke-dasharray:none;stroke-opacity:1"
       d="m 7.9374998,263.64362 c 0,0 21.9226172,-5.48065 31.9389882,-2.17336"
       id="path821"
       inkscape:connector-curvature="0" />
    <path
       style="fill:none;stroke:#000000;stroke-width:0.05;stroke-linecap:butt;stroke-linejoin:miter;stroke-miterlimit:4;stroke-dasharray:none;stroke-opacity:1"
       d="m 8.8824404,278.2902 c 0,0 12.7566956,-10.29985 30.8050586,-6.61459"
       id="path823"
       inkscape:connector-curvature="0" />
    <path
       style="fill:none;stroke:#000000;stroke-width:0.26458332px;stroke-linecap:butt;stroke-linejoin:miter;stroke-opacity:1"
       d="m 9.1300698,265.03217 c 0,-0.13363 -1.19257,-1.38855 -1.19257,-1.38855 0,0 5.0011602,-1.18392 6.6381862,-1.41778 1.637026,-0.23386 -4.042451,5.17835 -3.374278,14.36574 0.668175,9.18739 7.249686,-3.04019 7.383321,-3.4411 0.133634,-0.4009 -0.367496,-0.93544 -0.367496,-0.93544 l -0.03341,0.0334"
       id="path831"
       inkscape:connector-curvature="0" />
    <path
       style="fill:none;stroke:#000000;stroke-width:0.26458332px;stroke-linecap:butt;stroke-linejoin:miter;stroke-opacity:1"
       d="m 24.473958,260.78518 c 0,0 -5.338914,0.49609 -6.52009,0.87407 -1.181175,0.37797 0.236236,10.1581 6.945313,9.78013 l 3.260044,-0.47247"
       id="path833"
       inkscape:connector-curvature="0"
       sodipodi:nodetypes="cccc" />
    <path
       style="fill:none;stroke:#000000;stroke-width:0.26458332px;stroke-linecap:butt;stroke-linejoin:miter;stroke-opacity:1"
       d="m 18.520833,266.80917 c 0,0 0.188988,-1.98437 4.157738,-1.6064"
       id="path839"
       inkscape:connector-curvature="0" />
    <path
       style="fill:none;stroke:#000000;stroke-width:0.23234789px;stroke-linecap:butt;stroke-linejoin:miter;stroke-opacity:1"
       d="m 31.647526,270.88833 c 0,0 -3.785348,-3.81902 -4.710625,-8.96049 -0.567948,-3.1559 8.552625,-0.68401 7.349911,1.29981 -1.202711,1.98382 -4.969379,1.6447 -6.481284,1.62107 5.811384,0.96857 6.292357,5.8888 9.087164,6.29724"
       id="path841"
       inkscape:connector-curvature="0"
       sodipodi:nodetypes="csscc" />
    <path
       style="fill:none;stroke:#000000;stroke-width:0.26458332px;stroke-linecap:butt;stroke-linejoin:miter;stroke-opacity:1"
       d="m 39.876488,261.47026 c -1.603447,-0.52671 -4.279909,-1.60639 -3.429464,3.35454 0.850448,4.96094 3.688194,6.83526 5.24442,6.99256 1.7515,0.17703 3.799334,-2.94159 2.709869,-6.02846 -1.089463,-2.4855 -3.037081,-3.83301 -4.524825,-4.31864 z"
       id="path843"
       inkscape:connector-curvature="0"
       sodipodi:nodetypes="csscc" />
    <path
       style="fill:none;stroke:#000000;stroke-width:0.26458332px;stroke-linecap:butt;stroke-linejoin:miter;stroke-opacity:1"
       d="m 52.512407,263.23362 c -1.749376,-0.72755 -4.26852,-1.64056 -3.429464,3.35454 0.833793,4.96377 3.82701,6.3311 5.24442,6.99256 1.417413,0.66146 3.63274,1.46353 3.537184,-1.57173 -0.236562,-2.23842 -0.872233,-6.6687 -5.35214,-8.77537 z"
       id="path843-6"
       inkscape:connector-curvature="0"
       sodipodi:nodetypes="csscc" />
    <path
       style="fill:none;stroke:#000000;stroke-width:1.29999995;stroke-linecap:butt;stroke-linejoin:miter;stroke-miterlimit:4;stroke-dasharray:none;stroke-opacity:1"
       d="m 13.99359,285.79355 c 0,0 21.922617,-5.48065 31.938988,-2.17336"
       id="path821-5"
       inkscape:connector-curvature="0" />
    <path
       style="fill:none;stroke:#000000;stroke-width:2;stroke-linecap:butt;stroke-linejoin:miter;stroke-miterlimit:4;stroke-dasharray:none;stroke-opacity:1"
       d="m 14.93853,300.44013 c 0,0 12.756696,-10.29985 30.805059,-6.61459"
       id="path823-0"
       inkscape:connector-curvature="0" />
    <path
       style="fill:none;stroke:#000000;stroke-width:2;stroke-linecap:butt;stroke-linejoin:miter;stroke-miterlimit:4;stroke-dasharray:none;stroke-opacity:1"
       d="m 15.18616,287.1821 c 0,-0.13363 -1.19257,-1.38855 -1.19257,-1.38855 0,0 5.00116,-1.18392 6.638186,-1.41778 1.637026,-0.23386 -4.042451,5.17835 -3.374278,14.36574 0.668175,9.18739 7.249686,-3.04019 7.383321,-3.4411 0.133634,-0.4009 -0.367496,-0.93544 -0.367496,-0.93544 l -0.03341,0.0334"
       id="path831-4"
       inkscape:connector-curvature="0" />
    <path
       style="fill:none;stroke:#000000;stroke-width:2;stroke-linecap:butt;stroke-linejoin:miter;stroke-miterlimit:4;stroke-dasharray:none;stroke-opacity:1"
       d="m 30.530048,282.93511 c 0,0 -5.338914,0.49609 -6.52009,0.87407 -1.181175,0.37797 0.236236,10.1581 6.945313,9.78013 l 3.260044,-0.47247"
       id="path833-1"
       inkscape:connector-curvature="0"
       sodipodi:nodetypes="cccc" />
    <path
       style="fill:none;stroke:#000000;stroke-width:2;stroke-linecap:butt;stroke-linejoin:miter;stroke-miterlimit:4;stroke-dasharray:none;stroke-opacity:1"
       d="m 24.576923,288.9591 c 0,0 0.188988,-1.98437 4.157738,-1.6064"
       id="path839-4"
       inkscape:connector-curvature="0" />
    <path
       style="fill:none;stroke:#000000;stroke-width:2;stroke-linecap:butt;stroke-linejoin:miter;stroke-miterlimit:4;stroke-dasharray:none;stroke-opacity:1"
       d="m 37.703616,293.03826 c 0,0 -3.785348,-3.81902 -4.710625,-8.96049 -0.567948,-3.1559 8.552626,-0.68401 7.349912,1.29981 -1.202712,1.98382 -4.96938,1.6447 -6.481285,1.62107 5.811384,0.96857 6.292357,5.8888 9.087164,6.29724"
       id="path841-1"
       inkscape:connector-curvature="0"
       sodipodi:nodetypes="csscc" />
    <path
       style="fill:none;stroke:#000000;stroke-width:2;stroke-linecap:butt;stroke-linejoin:miter;stroke-miterlimit:4;stroke-dasharray:none;stroke-opacity:1"
       d="m 45.932578,283.62019 c -1.603446,-0.52671 -4.279908,-1.60639 -3.429463,3.35454 0.850448,4.96094 3.688194,6.83526 5.24442,6.99256 1.751499,0.17703 3.799332,-2.94159 2.709868,-6.02846 -1.089462,-2.4855 -3.037081,-3.83301 -4.524825,-4.31864 z"
       id="path843-8"
       inkscape:connector-curvature="0"
       sodipodi:nodetypes="csscc" />
  </g>
</svg>
